Coordinates
version=1
nRows=4
nColumns=107
inDegrees=yes

Units are S.I. units (second, meters, Newtons, ...)
If the header above contains a line with 'inDegrees', this indicates whether rotational values are in degrees (yes) or radians (no).

endheader
time	sternoclavicular_r2	sternoclavicular_r3	unrotscap_r3	unrotscap_r2	acromioclavicular_r2	acromioclavicular_r3	acromioclavicular_r1	unrothum_r1	unrothum_r3	unrothum_r2	elv_angle	shoulder_elv	shoulder1_r2	shoulder_rot	elbow_flexion	pro_sup	deviation	flexion	proximal_distal_r1	proximal_distal_r3	cmc_flexion	cmc_abduction	mp_flexion	ip_flexion	mcp2_flexion	mcp2_abduction	pm2_flexion	md2_flexion	mcp3_flexion	mcp3_abduction	pm3_flexion	md3_flexion	mcp4_flexion	mcp4_abduction	pm4_flexion	md4_flexion	mcp5_flexion	mcp5_abduction	pm5_flexion	md5_flexion	bicpt_tx	bicpt_ty	bicpt_tz	bicpt2_tx	bicpt2_ty	bicpt2_tz	ptpt_tx	ptpt_ty	ptpt_tz	FCUpt_tx	FCUpt_ty	FCUpt_tz	EDCpt_tx	EDCpt_ty	EDCpt_tz	APLpt_tx	APLpt_ty	APLpt_tz	FPLpt_tx	FPLpt_ty	FPLpt_tz	FPLpt2_tx	FPLpt2_ty	FPLpt2_tz	PEC1pt2_tx	PEC1pt2_ty	PEC1pt2_tz	PEC1pt3_tx	PEC1pt3_ty	PEC1pt3_tz	PEC2pt2_tx	PEC2pt2_ty	PEC2pt2_tz	PEC2pt3_tx	PEC2pt3_ty	PEC2pt3_tz	PEC3pt2_tx	PEC3pt2_ty	PEC3pt2_tz	PEC3pt3_tx	PEC3pt3_ty	PEC3pt3_tz	DELT2pt2a_tx	DELT2pt2a_ty	DELT2pt2a_tz	DELT2pt2_tx	DELT2pt2_ty	DELT2pt2_tz	LAT1pt2_tx	LAT1pt2_ty	LAT1pt2_tz	LAT1pt3_tx	LAT1pt3_ty	LAT1pt3_tz	LAT2pt2_tx	LAT2pt2_ty	LAT2pt2_tz	LAT2pt3_tx	LAT2pt3_ty	LAT2pt3_tz	LAT3pt2_tx	LAT3pt2_ty	LAT3pt2_tz	LAT3pt3_tx	LAT3pt3_ty	LAT3pt3_tz
      0.00000000	     -0.32918445	      0.13942700	     -0.13942700	      0.32918445	     -0.06665316	      0.53866736	      0.24212727	     -0.24212727	     -0.53866736	      0.06665316	     97.98864922	     77.93734565	     -1.71022456	    -16.79670674	     29.20551538	     37.62338108	      0.22501991	      0.07791959	      0.26394030	      0.03895980	     29.79951111	    -17.68638264	      6.55763233	     -5.56086879	     -3.63461330	     13.38071996	     12.11577942	    -18.74605352	    -16.18811350	      3.97318023	     12.53964231	     13.35926355	    -24.76227731	     -4.13411638	     11.33146544	     20.54288635	    -17.14485901	    -14.36397121	     -8.44556154	      5.11290769	      0.00086603	     -0.03094740	     -0.00483918	      0.01656351	     -0.01813382	     -0.00771978	      0.00477006	     -0.06669756	     -0.00308077	      0.00754183	     -0.18354370	     -0.00036742	     -0.00451480	      0.00128444	      0.00016195	     -0.00008481	     -0.00003392	     -0.00016961	     -0.00010855	     -0.00032566	     -0.00018318	     -0.00000827	     -0.00025165	     -0.00030198	      0.00255462	      0.00896280	      0.00623499	     -0.00835662	      0.02017713	     -0.01913796	      0.00255462	      0.00896280	      0.00623499	      0.00056288	      0.01870498	     -0.00982877	      0.00401438	      0.00498410	      0.01612776	      0.00000000	      0.00812616	      0.00000000	     -0.00731746	     -0.03381618	     -0.00670226	      0.01185918	     -0.00033565	     -0.00226921	     -0.00090927	      0.01524109	     -0.00623499	      0.00251132	      0.02199567	     -0.01818540	     -0.00610510	      0.01320606	     -0.00558551	     -0.01272978	      0.02788427	     -0.03121826	     -0.02390081	      0.01476481	     -0.00749065	     -0.01584727	      0.03221413	     -0.03901200
      0.03333333	     -0.32925492	      0.13945685	     -0.13945685	      0.32925492	     -0.06666742	      0.53878267	      0.24217910	     -0.24217910	     -0.53878267	      0.06666742	     97.99471584	     77.95402961	     -1.71033044	    -16.79469471	     29.21258092	     37.62919691	      0.22505340	      0.07786108	      0.26397255	      0.03893054	     29.79574052	    -17.68554329	      6.55560443	     -5.56137422	     -3.63617601	     13.38203823	     12.11540483	    -18.74626996	    -16.19195782	      3.97411608	     12.53904609	     13.35908273	    -24.76037828	     -4.13457248	     11.33215843	     20.54290647	    -17.14689500	    -14.36436863	     -8.44638245	      5.11275173	      0.00086626	     -0.03094821	     -0.00483931	      0.01656355	     -0.01813574	     -0.00771918	      0.00476963	     -0.06669784	     -0.00308123	      0.00754242	     -0.18354358	     -0.00036747	     -0.00451549	      0.00128467	      0.00016192	     -0.00008474	     -0.00003390	     -0.00016948	     -0.00010847	     -0.00032540	     -0.00018304	     -0.00000826	     -0.00025168	     -0.00030202	      0.00255516	      0.00896472	      0.00623633	     -0.00835841	      0.02018145	     -0.01914206	      0.00255516	      0.00896472	      0.00623633	      0.00056300	      0.01870898	     -0.00983088	      0.00401500	      0.00498517	      0.01612923	      0.00000000	      0.00812966	      0.00000000	     -0.00731902	     -0.03382342	     -0.00670517	      0.01185791	     -0.00033560	     -0.00226864	     -0.00090946	      0.01524436	     -0.00623633	      0.00251185	      0.02200038	     -0.01818929	     -0.00610640	      0.01320889	     -0.00558671	     -0.01273250	      0.02789024	     -0.03122495	     -0.02390592	      0.01476797	     -0.00749225	     -0.01585067	      0.03222103	     -0.03902036
      0.06666667	     -0.32684721	      0.13843705	     -0.13843705	      0.32684721	     -0.06617991	      0.53484277	      0.24040814	     -0.24040814	     -0.53484277	      0.06617991	     98.34338302	     77.38398299	     -1.71641583	    -19.25240391	     29.64978167	     42.20786872	      0.24451813	      0.11698482	      0.28290777	      0.05849241	     29.86346795	    -17.72907889	      5.57851796	     -4.20794156	     -3.18667491	     13.63855104	     10.94496989	    -18.75563824	    -15.44307528	      4.25207711	     12.78030693	     12.75062649	    -21.44042089	     -4.32129729	     10.00245624	     18.80220560	    -13.80805602	    -14.40563090	    -10.30054125	      5.07378791	      0.00088072	     -0.03099832	     -0.00484738	      0.01657326	     -0.01825451	     -0.00723110	      0.00443131	     -0.06691659	     -0.00345007	      0.00800323	     -0.18344848	     -0.00040036	     -0.00506493	      0.00147077	      0.00012932	     -0.00013106	     -0.00005242	     -0.00026212	     -0.00016776	     -0.00050327	     -0.00028309	     -0.00000837	     -0.00025122	     -0.00030146	      0.00253648	      0.00889917	      0.00619072	     -0.00829729	      0.02003387	     -0.01900208	      0.00253648	      0.00889917	      0.00619072	      0.00055888	      0.01857217	     -0.00975899	      0.00399374	      0.00494871	      0.01607850	      0.00000000	      0.00801033	      0.00000000	     -0.00726550	     -0.03357608	     -0.00660614	      0.01334147	     -0.00040908	     -0.00304267	     -0.00090281	      0.01513288	     -0.00619072	      0.00249349	      0.02183950	     -0.01805628	     -0.00606175	      0.01311230	     -0.00554586	     -0.01263939	      0.02768629	     -0.03099661	     -0.02373111	      0.01465998	     -0.00743747	     -0.01573476	      0.03198541	     -0.03873502
      0.10000000	     -0.32689204	      0.13845604	     -0.13845604	      0.32689204	     -0.06618899	      0.53491613	      0.24044112	     -0.24044112	     -0.53491613	      0.06618899	     98.34575469	     77.39459706	     -1.71645722	    -19.25209782	     29.65538293	     42.21089015	      0.24453940	      0.11695159	      0.28292806	      0.05847580	     29.86182073	    -17.72883393	      5.57755409	     -4.20814806	     -3.18743039	     13.63888112	     10.94490014	    -18.75570122	    -15.44552378	      4.25253321	     12.78004623	     12.75064335	    -21.44029311	     -4.32165094	     10.00277869	     18.80239827	    -13.80922704	    -14.40594045	    -10.30080089	      5.07375911	      0.00088091	     -0.03099896	     -0.00484748	      0.01657295	     -0.01825603	     -0.00723059	      0.00443109	     -0.06691674	     -0.00345031	      0.00800358	     -0.18344838	     -0.00040027	     -0.00506529	      0.00147093	      0.00012922	     -0.00013111	     -0.00005244	     -0.00026222	     -0.00016782	     -0.00050347	     -0.00028320	     -0.00000836	     -0.00025114	     -0.00030137	      0.00253683	      0.00890039	      0.00619157	     -0.00829843	      0.02003662	     -0.01900469	      0.00253683	      0.00890039	      0.00619157	      0.00055896	      0.01857472	     -0.00976033	      0.00399414	      0.00494939	      0.01607946	      0.00000000	      0.00801254	      0.00000000	     -0.00726650	     -0.03358068	     -0.00660798	      0.01334093	     -0.00040908	     -0.00304300	     -0.00090294	      0.01513496	     -0.00619157	      0.00249383	      0.02184249	     -0.01805875	     -0.00606258	      0.01311410	     -0.00554662	     -0.01264113	      0.02769009	     -0.03100086	     -0.02373436	      0.01466199	     -0.00743849	     -0.01573691	      0.03198979	     -0.03874033
